<svg width="131" height="29" viewBox="0 0 131 29" fill="none" xmlns="http://www.w3.org/2000/svg">
<g clip-path="url(#clip0_1595_580)">
<path d="M12.8821 3.07553C13.1733 2.13759 14.5009 2.13759 14.7921 3.07553L16.7253 9.30142C16.8552 9.71977 17.2423 10.0049 17.6803 10.0049H24.0294C24.9871 10.0049 25.397 11.2213 24.6346 11.801L19.4212 15.7645C19.0865 16.019 18.9468 16.4556 19.0714 16.8571L21.0442 23.2104C21.3327 24.1397 20.2586 24.8919 19.4839 24.303L14.4423 20.47C14.0847 20.1981 13.5896 20.1981 13.2319 20.47L8.19026 24.303C7.41559 24.8919 6.34145 24.1397 6.63002 23.2104L8.60277 16.8571C8.72744 16.4556 8.58765 16.019 8.25296 15.7645L3.03955 11.801C2.27716 11.2213 2.68706 10.0049 3.64477 10.0049H9.99385C10.4319 10.0049 10.819 9.71977 10.9489 9.30142L12.8821 3.07553Z" fill="#F19938"/>
<path d="M40.9659 2.97971C41.2623 2.05234 42.5745 2.05234 42.8709 2.97972L44.8941 9.30921C45.0265 9.72355 45.4116 10.0047 45.8466 10.0047H52.4281C53.3929 10.0047 53.7983 11.236 53.0222 11.8091L47.6696 15.7622C47.3249 16.0168 47.1807 16.4628 47.3112 16.8711L49.349 23.2464C49.6444 24.1706 48.5829 24.9317 47.8024 24.3553L42.5125 20.4484C42.1594 20.1877 41.6774 20.1877 41.3243 20.4484L36.0344 24.3553C35.2539 24.9317 34.1924 24.1706 34.4878 23.2464L36.5256 16.8711C36.6561 16.4628 36.5119 16.0168 36.1672 15.7622L30.8146 11.8091C30.0385 11.236 30.4439 10.0047 31.4087 10.0047H37.9902C38.4252 10.0047 38.8103 9.72355 38.9427 9.30921L40.9659 2.97971Z" fill="#F19938"/>
<path d="M69.0449 3.07553C69.3361 2.13759 70.6637 2.13759 70.9549 3.07553L72.8881 9.30142C73.018 9.71977 73.4051 10.0049 73.8431 10.0049H80.1922C81.1499 10.0049 81.5598 11.2213 80.7974 11.801L75.584 15.7645C75.2493 16.019 75.1096 16.4556 75.2342 16.8571L77.207 23.2104C77.4955 24.1397 76.4214 24.8919 75.6467 24.303L70.6051 20.47C70.2475 20.1981 69.7524 20.1981 69.3947 20.47L64.3531 24.303C63.5784 24.8919 62.5043 24.1397 62.7928 23.2104L64.7656 16.8571C64.8903 16.4556 64.7505 16.019 64.4158 15.7645L59.2024 11.801C58.44 11.2213 58.8499 10.0049 59.8076 10.0049H66.1567C66.5947 10.0049 66.9818 9.71977 67.1117 9.30142L69.0449 3.07553Z" fill="#F19938"/>
<path d="M97.129 2.97971C97.4254 2.05234 98.7376 2.05234 99.034 2.97972L101.057 9.30921C101.19 9.72355 101.575 10.0047 102.01 10.0047H108.591C109.556 10.0047 109.961 11.236 109.185 11.8091L103.833 15.7622C103.488 16.0168 103.344 16.4628 103.474 16.8711L105.512 23.2464C105.808 24.1706 104.746 24.9317 103.966 24.3553L98.6756 20.4484C98.3224 20.1877 97.8405 20.1877 97.4874 20.4484L92.1975 24.3553C91.417 24.9317 90.3555 24.1706 90.6509 23.2464L92.6887 16.8711C92.8192 16.4628 92.675 16.0168 92.3303 15.7622L86.9777 11.8091C86.2016 11.236 86.607 10.0047 87.5718 10.0047H94.1533C94.5883 10.0047 94.9734 9.72355 95.1058 9.30921L97.129 2.97971Z" fill="#F19938"/>
<path d="M125.208 3.07553C125.499 2.13759 126.827 2.13759 127.118 3.07553L129.051 9.30142C129.181 9.71977 129.568 10.0049 130.006 10.0049H136.355C137.313 10.0049 137.723 11.2213 136.96 11.801L131.747 15.7645C131.412 16.019 131.273 16.4556 131.397 16.8571L133.37 23.2104C133.659 24.1397 132.584 24.8919 131.81 24.303L126.768 20.47C126.41 20.1981 125.915 20.1981 125.558 20.47L120.516 24.303C119.741 24.8919 118.667 24.1397 118.956 23.2104L120.929 16.8571C121.053 16.4556 120.913 16.019 120.579 15.7645L115.365 11.801C114.603 11.2213 115.013 10.0049 115.971 10.0049H122.32C122.758 10.0049 123.145 9.71977 123.275 9.30142L125.208 3.07553Z" fill="#F19938"/>
</g>
<defs>
<clipPath id="clip0_1595_580">
<rect width="131" height="29" fill="white"/>
</clipPath>
</defs>
</svg>
