<svg width="140" height="29" viewBox="0 0 140 29" fill="none" xmlns="http://www.w3.org/2000/svg">
<path d="M12.8822 3.07565C13.1734 2.13771 14.501 2.13771 14.7922 3.07565L16.7254 9.30154C16.8553 9.71989 17.2424 10.005 17.6804 10.005H24.0295C24.9872 10.005 25.3971 11.2214 24.6347 11.8011L19.4213 15.7646C19.0866 16.0191 18.9469 16.4557 19.0715 16.8572L21.0443 23.2105C21.3328 24.1398 20.2587 24.892 19.484 24.3031L14.4424 20.4701C14.0848 20.1982 13.5897 20.1982 13.232 20.4701L8.19038 24.3031C7.41571 24.892 6.34157 24.1398 6.63014 23.2105L8.60289 16.8572C8.72756 16.4557 8.58777 16.0191 8.25308 15.7646L3.03967 11.8011C2.27728 11.2214 2.68718 10.005 3.64489 10.005H9.99397C10.432 10.005 10.8191 9.71989 10.949 9.30154L12.8822 3.07565Z" fill="#F19938"/>
<path d="M40.966 2.97996C41.2624 2.05259 42.5746 2.05259 42.871 2.97997L44.8942 9.30946C45.0266 9.7238 45.4117 10.005 45.8467 10.005H52.4282C53.393 10.005 53.7984 11.2363 53.0223 11.8094L47.6697 15.7625C47.325 16.0171 47.1808 16.4631 47.3113 16.8714L49.3491 23.2467C49.6445 24.1709 48.583 24.932 47.8025 24.3556L42.5126 20.4487C42.1595 20.188 41.6775 20.188 41.3244 20.4487L36.0345 24.3556C35.254 24.932 34.1925 24.1709 34.4879 23.2467L36.5257 16.8714C36.6562 16.4631 36.512 16.0171 36.1673 15.7625L30.8147 11.8094C30.0386 11.2363 30.444 10.005 31.4088 10.005H37.9903C38.4253 10.005 38.8104 9.7238 38.9428 9.30946L40.966 2.97996Z" fill="#F19938"/>
<path d="M69.0448 3.07565C69.336 2.13771 70.6636 2.13771 70.9548 3.07565L72.888 9.30154C73.0179 9.71989 73.405 10.005 73.843 10.005H80.1921C81.1498 10.005 81.5597 11.2214 80.7973 11.8011L75.5839 15.7646C75.2492 16.0191 75.1095 16.4557 75.2341 16.8572L77.2069 23.2105C77.4954 24.1398 76.4213 24.892 75.6466 24.3031L70.605 20.4701C70.2474 20.1982 69.7523 20.1982 69.3946 20.4701L64.353 24.3031C63.5783 24.892 62.5042 24.1398 62.7927 23.2105L64.7655 16.8572C64.8902 16.4557 64.7504 16.0191 64.4157 15.7646L59.2023 11.8011C58.4399 11.2214 58.8498 10.005 59.8075 10.005H66.1566C66.5946 10.005 66.9817 9.71989 67.1116 9.30154L69.0448 3.07565Z" fill="#F19938"/>
<path d="M97.1291 2.97996C97.4255 2.05259 98.7377 2.05259 99.0341 2.97997L101.057 9.30946C101.19 9.7238 101.575 10.005 102.01 10.005H108.591C109.556 10.005 109.961 11.2363 109.185 11.8094L103.833 15.7625C103.488 16.0171 103.344 16.4631 103.474 16.8714L105.512 23.2467C105.808 24.1709 104.746 24.932 103.966 24.3556L98.6757 20.4487C98.3225 20.188 97.8406 20.188 97.4875 20.4487L92.1976 24.3556C91.4171 24.932 90.3556 24.1709 90.651 23.2467L92.6888 16.8714C92.8193 16.4631 92.6751 16.0171 92.3304 15.7625L86.9778 11.8094C86.2017 11.2363 86.6071 10.005 87.5719 10.005H94.1534C94.5884 10.005 94.9735 9.7238 95.1059 9.30946L97.1291 2.97996Z" fill="#F19938"/>
<path d="M125.208 3.07565C125.499 2.13771 126.827 2.13771 127.118 3.07565L129.051 9.30154C129.181 9.71989 129.568 10.005 130.006 10.005H136.355C137.313 10.005 137.723 11.2214 136.96 11.8011L131.747 15.7646C131.412 16.0191 131.273 16.4557 131.397 16.8572L133.37 23.2105C133.659 24.1398 132.584 24.892 131.81 24.3031L126.768 20.4701C126.41 20.1982 125.915 20.1982 125.558 20.4701L120.516 24.3031C119.741 24.892 118.667 24.1398 118.956 23.2105L120.929 16.8572C121.053 16.4557 120.913 16.0191 120.579 15.7646L115.365 11.8011C114.603 11.2214 115.013 10.005 115.971 10.005H122.32C122.758 10.005 123.145 9.71989 123.275 9.30154L125.208 3.07565Z" fill="#F19938"/>
</svg>
