<svg width="48" height="48" viewBox="0 0 48 48" fill="none" xmlns="http://www.w3.org/2000/svg">
<path d="M22.8683 24.2979C24.1159 25.5204 25.0167 27.0521 25.4787 28.7366C25.9408 30.421 25.9476 32.1979 25.4983 33.8859C25.0444 35.576 24.1519 37.1161 22.9113 38.3503C21.6706 39.5845 20.1258 40.4689 18.4333 40.9139C16.7383 41.3623 14.9552 41.3567 13.263 40.8977C11.5709 40.4386 10.0294 39.5424 8.79333 38.2989C6.98123 36.4361 5.97754 33.9335 6.00038 31.3348C6.02323 28.7361 7.07076 26.2515 8.91533 24.4209C12.7543 20.6009 18.9613 20.5479 22.8663 24.2999L22.8683 24.2979Z" stroke="#B4B4B4" stroke-width="4" stroke-linejoin="round"/>
<path d="M23 24L40 7" stroke="#B4B4B4" stroke-width="4" stroke-linecap="round" stroke-linejoin="round"/>
<path d="M30.3047 16.9001L35.7337 22.3001L42.0667 16.0001L36.6387 10.6001L30.3047 16.9001Z" stroke="#B4B4B4" stroke-width="4" stroke-linejoin="round"/>
<circle cx="16.3" cy="31.3" r="8.3" fill="#919191"/>
<rect x="35.7363" y="19.5266" width="3.70937" height="4.97193" transform="rotate(-135.25 35.7363 19.5266)" fill="#919191"/>
</svg>
